<svg id="Layer_1" data-name="Layer 1" xmlns="http://www.w3.org/2000/svg" viewBox="0 0 678.06 690.82"><defs><style>.cls-1{fill:#7d91b0;}</style></defs><title>favicon</title><polygon class="cls-1" points="283.16 0 283.16 172.45 336.22 172.45 336.22 327.55 550.51 327.55 550.51 172.45 597.53 172.45 597.53 0 283.16 0"/><path class="cls-1" d="M288.27,237.76s-258.16-48-258.16,165.3S325,569.41,325,569.41V357.14l-36.73-1Z"/><path class="cls-1" d="M385.21,361.7V690.82H678.06l-57.14-93.88s61.23-36.73,48-124.49S562.76,361.7,562.76,361.7Z"/><g id="Layer_3" data-name="Layer 3"><rect class="cls-1" x="356.8" y="361.69" width="15.31" height="164.56"/><polygon class="cls-1" points="283.16 182.82 324.22 182.82 324.22 327.55 309.29 327.55 307.83 198.13 283.16 198.13 283.16 182.82"/><path class="cls-1" d="M17.35,406.06S6.13,551.57,183.68,576.77v16S13.27,588.49,0,406.46Z"/></g></svg>